<svg id="Layer_1" data-name="Layer 1" xmlns="http://www.w3.org/2000/svg" viewBox="0 0 172.09 166.31"><defs><style>.cls-1,.cls-2{fill:none;stroke-miterlimit:10;}.cls-1{stroke:#a6af73;}.cls-2{stroke:#fbdb82;}.cls-3{fill:#fde9b4;}.cls-4{fill:#d8d8b8;}</style></defs><path class="cls-1" d="M69.8,48.23s3-2.68,4.63-3.2a8.59,8.59,0,0,1,4.72-.74,13.9,13.9,0,0,1,4.41,1.11c.16.15.42.36-1,1.47s-2.76,2-2.68,2.08"/><path class="cls-1" d="M83.69,51.81c.93-1.28,1.9-4,5.44-4S94,49.37,94,50.4a19.58,19.58,0,0,1-1.29,6.37c-.9,1.94-1,4.71-2.19,7a27.67,27.67,0,0,0-2.24,5.28l-.14.73"/><path class="cls-2" d="M32.69,100.94c-.63-1.49.62-8.83,0-12.06s-2.12-11.08-2-14.43,3.73-10.83,7.21-14.19S51.72,49.57,54.83,49.32s9.58-2.24,13.31-1.25,3.75,1.37,6.71,1.28,3.43-.86,5.44.09,3.24,2.1,3.33,3.91.38,14.78,0,16-3.72.76-5.91,1.81-10.11,3.24-13.35,6-9.15,6.86-11,11.91S52.54,99.31,52,99.69s-3.53,1.91-5.44,1.91-4.67-.1-6.39.66-4.48,1.34-5.53.86A5.73,5.73,0,0,1,32.69,100.94Z"/><path class="cls-1" d="M86.06,122.75s6.1,11.87,7.65,13.66,9.36,10.25,10.25,10.82,1.22.57,1.06-.81-2.36-5.78-1.3-9.93,3-9.53,4.64-11.81,5.61-6.75,6.18-8.14,1.88-3.17,2.12-9.52.65-4.4,0-7-2-4.15-3.66-6.35-3.75-4.48-5.13-6.19-3-3.25-3.5-4.72-1.55-3.09-1.55-5,.25-2.77.49-2.94S106,78,107.38,80.4s1.55,3.09,2.12,3.09,1.06,0,.89-1.87a10.69,10.69,0,0,0-1.46-5c-1.22-2.45-2.12-2-3-4.64s-2.12-3.59-2.53-5.46a42.76,42.76,0,0,0-2.2-6.59,26.48,26.48,0,0,1-1.38-3.34c-.24-.9-.73-1.3-.24-1.3s1.57,1,2.85,3c2,3.06,2.36,6.67,2.68,7.95s1.71,2.16,2.54,4.7c.65,2,3.49,4.2,4.3,4.44s1.06,0,1.22.85a55.76,55.76,0,0,0,2.52,8c1.14,2.6,9.61,17.38,12,19.72s7.08,7.71,7.74,8.12,1.05,1.87.65.4-3.42-6.87-4.07-8.52A70.15,70.15,0,0,1,129.93,97c-.49-2-.81-5.29-1.22-7.74s-.9-5.29-1.47-6-1.38-1.3-.57-1.22a104.33,104.33,0,0,0,10.91.73c2.85-.16,11.15-.89,13.11-1.38s3.82-1.39,4.72-1.3,1.14-.66,2.77-.49,1.87.08,2-.25-3.5-1.06-4.72-2-3.58-1-5.37-1.79A38.64,38.64,0,0,1,144,71.53c-1.54-1.22-4-2.53-5.53-5a23.92,23.92,0,0,0-3.67-5c-1-.82-2.36-1.14-3.74-2.53s-2.69-1.38-3.34-1.87-1-1.55-2.28-2.6-1.38-2.12-3.74-2.61-3.75-1-5.29-.65-.82-.49-4.15.73-4.08,2.12-6.19,2.12-4.56.49-6.27-1.14a27.7,27.7,0,0,1-4.31-6.27c-.49-1.06-2.2-5-3.75-6.35s-4.8-3.66-5.69-5S83,32,82.39,31s-1.55-2.52-2.12-2.69-.81-.16-1,1.06-.33,4.56.32,5.29,7.74,5.78,8.39,7.08,2.28,2.45,1.38,2.94-2-.25-3.34-.41a37.21,37.21,0,0,1-4.31-1.14c-1.63-.41-2.61-.65-4.64-1.3a12.53,12.53,0,0,1-5-2.69,63,63,0,0,0-7.32-6.27,27.58,27.58,0,0,0-5.21-2.44,16.77,16.77,0,0,0-7.09-.57,18,18,0,0,0-4.72,1.06c-1.46.57-3.42,2.6-4.8,3.17s-1.3,1.06-3.91,1.39a11.1,11.1,0,0,0-6.1,2.68C30.7,39.78,28.18,41,27,42s-2.76,1.22-2.19,1.63S29.8,45,31.51,46s4.81,1.71,5.62,2.48,1.45.51,3.16,1.16,2.72.84,3.54,1.65a20.19,20.19,0,0,1,1.84,2.33"/><path class="cls-1" d="M90.87,72.11s.37-4,1.22-5.36a12.82,12.82,0,0,0,1.93-4c.11-1,.66-1.28.66-2.38a7.06,7.06,0,0,1,.91-2.93c.23-.37.73-.78,1.24,0s1.6,2.24,1.46,3.39.73,3.52,1.15,4.58,1.42,3.26,1.74,4.42a6.77,6.77,0,0,1,.23,4.64c-.74,1.88-.74,3-2,4.85a25.33,25.33,0,0,0-2.58,4.11c-.24.76-.5,1.45-.5,1.45"/><path class="cls-2" d="M52.14,99.17c.18,2.77.71,9.8,1.42,11.51s3.78,8.38,4.66,10.21,3.31,7.2,4.13,8,2.6,3.31,3.25,3.36,3.84.18,4.66-.53,1.42-2.59,4-4,6.5-2.82,7.67-3.43,6.41-3,7.55-4.66,7.41-7.72,8.14-10.75,2.72-3.44,2.09-8.87-1.67-10.23-2.92-13S94,83.61,93.13,81.59a13.08,13.08,0,0,1-1.25-4.68c-.22-1.9-.11-2-.87-3.15a10,10,0,0,0-2.72-3.05,6.34,6.34,0,0,0-2.5-.82,21.37,21.37,0,0,0-2.92.13"/><path class="cls-3" d="M34.49,100.74c-.46-3.06.9-5.82,0-10.65s-1.94-10.22-1.94-12.75.46-7.93,3.3-11.15,8.63-10.46,14.31-12.87A47.75,47.75,0,0,1,60.5,49.87c3.64-.86,6.37-.74,8.41,0s4.09,1.67,5.45,1.44,4.32-1.49,5.8,0,1.82,5.57,1.7,7.15.91,9.17-.68,9.74-16.11,5.06-20,8.17-7.36,5.93-9.33,9.42c-2.45,4.32-1.6,9.88-1.6,10.8a2.36,2.36,0,0,1-1.48,2.3c-1,.34-3.41-.35-4.66.23a40.28,40.28,0,0,1-5,1.62,18.55,18.55,0,0,1-3.52.83C34.92,101.57,34.49,100.74,34.49,100.74Z"/><path class="cls-3" d="M63.44,127.73c-1.86-2.4-1.5-3.39-2.81-7s-3.81-7.42-4.57-9A33.61,33.61,0,0,1,54,101.07c-.1-4.19-.1-9.64,1.86-12.26s4.9-6.62,7.63-8.5,9.15-6.1,11.66-6.1,6.75-2.62,7.74-2.62,3.7.11,4.35.77S90,73.8,90,75.42a19.87,19.87,0,0,0,.92,5.76c.6,1.75,2.43,2.95,3.15,4.25,0,0,3.71,12.2,3.71,13.45s.46,2.71,0,4.41a49,49,0,0,1-2.38,5.33c-.34.91-.11,1.48-2.38,3.86s-3,3.74-4.11,4.87-2.22,2.94-3.58,3.4a50.8,50.8,0,0,0-7.61,3.06c-2.15,1.25-4.68,2.28-5.81,3.75a5.61,5.61,0,0,1-4.5,1.9C65.86,129.46,63.44,127.73,63.44,127.73Z"/><path class="cls-4" d="M76.24,43.43c-1.2.08-3.58,1.71-5.71,3s-2.92.53-4,.19-1.53-.24-3.4,0a39.36,39.36,0,0,0-5.78,1.21,19.93,19.93,0,0,1-4,.42c-1.07.18-2.41,1.34-5.09,2.77s-2.32.9-3,0-1.33-1-3-2-2.62-.41-4-1.09c-1.06-.53-.82-.89-2.37-1.33a15.47,15.47,0,0,1-3.31-1.4c-1.79-1-3.18-1.8-4.45-1.76-2.09.07-.29-.4-.07-.55,1.38-.9,5.11-3.32,7.57-4.78,3.07-1.82,4.1-1,6-1.93a24.06,24.06,0,0,0,4.91-3.25,11,11,0,0,1,6.06-2c2.33,0,6.66.11,8.13,1.19s5.92,3.35,8.65,6.08,4.45,3.83,5.47,4,2.43.88,3,.84a30.85,30.85,0,0,1,6.43,1.46c.36.23,1.27,1.23.61.84L84.35,45a7.13,7.13,0,0,0-2.85-1c-.73-.09-2.15-.56-3.08-.6S76.24,43.43,76.24,43.43Z"/><path class="cls-4" d="M84.26,44.84a1.85,1.85,0,0,1,0,1.31,9,9,0,0,1-1.56,1.58c-.6.46-1.28.93-1.51,1.08s-.1,0,.49.46a8,8,0,0,1,1.25,1.12c.27.27.32.24.42.43S84.5,49.13,85,48.63A8.25,8.25,0,0,1,88.47,47a11.55,11.55,0,0,1,4,.55c.39.28,1.27.56,1.59,1.06a3.58,3.58,0,0,0,.24.34c.17.19.31.2.68,0,.54-.24.77-.17.71-.33s-1-2-1.42-2.78S93,43.35,92.73,43a4.34,4.34,0,0,0-1-1.51c-.69-.61-3.09-2.42-3.57-2.86s-2-1.67-2.37-2.15A9.82,9.82,0,0,0,85,35.36a25.29,25.29,0,0,0-1.67-2,12.07,12.07,0,0,1-1.26-1.63,6.33,6.33,0,0,1-1-1.3,6.9,6.9,0,0,0-.67-1.12,3.74,3.74,0,0,0-.41-.38,6.65,6.65,0,0,0-.16,1.51,10.11,10.11,0,0,0,.32,3.39c.16.74.91,1,1.93,1.64a24.55,24.55,0,0,1,3,2.44c.66.61,2,1.76,3.1,2.78a13.23,13.23,0,0,1,2.09,2.94c.42.6.42,1,.25,1.23a2,2,0,0,1-1.38.6,12.77,12.77,0,0,1-2.2-.26,9.82,9.82,0,0,0-1.78-.34,3.12,3.12,0,0,1-.92-.34"/><path class="cls-4" d="M94.42,49.29a3.2,3.2,0,0,1,.3,2.14c-.07.81-.23,2-.38,2.84a8.48,8.48,0,0,1-.52,1.88c-.19.41-.23.76-.47,1.28a6.41,6.41,0,0,0-.55,1.5,21,21,0,0,1-.5,2.27c-.16.33-.44,1.69-.73,2.3s-2,3.78-2.26,4.72a7,7,0,0,0-.45,1.65c0,.27.51.53.86,1s.4.9.78-1A13.11,13.11,0,0,1,91.6,66a7.41,7.41,0,0,0,1.2-1.82c.1-.46.53-1,.59-1.48a7.18,7.18,0,0,1,.38-1.58,1.61,1.61,0,0,0,.25-.84,8,8,0,0,1,.75-3c.5-.74.91-1,1.28-1a2.35,2.35,0,0,1,1.47.78,15,15,0,0,1,1,1.75A6.88,6.88,0,0,1,99,60.55a4,4,0,0,0,0,1.37c.14.72,1.51,4.37,1.74,5s1,2.53,1.16,3a9.07,9.07,0,0,1,.58,2.4,3.08,3.08,0,0,0,0,.43c0,.41.28.68,1.26.48,1.3-.27,1.65.27,1.3-.87a16.85,16.85,0,0,0-1.3-3,11.88,11.88,0,0,1-.91-2l-.42-1.76a23.13,23.13,0,0,0-.78-2.26c-.29-.7-.87-2.63-1.08-3s-1-2.07-1.12-2.4-.2-.77-.29-1.06a15.43,15.43,0,0,1-.56-1.45c-.08-.45.09-.37.13-1a2.25,2.25,0,0,0-.6-1.95c-.73-1-1.6-2.36-1.91-2.79s-.58-.9-.58-.9l-1.39.3Z"/><path class="cls-4" d="M102.42,73a13.24,13.24,0,0,1-.48,2,6.13,6.13,0,0,1-.42,1.68,11.73,11.73,0,0,1-1.2,2.48c-.33.53-1.09,1.65-1.51,2.37a18.68,18.68,0,0,0-1.14,1.76A7.31,7.31,0,0,0,97,85.08c0,.34,1.55,2.77,2,4.28A54,54,0,0,1,100.47,96c0,.95.77,4.46.45,5.85s-.06,2.49-.51,3.4a25.69,25.69,0,0,0-1.24,2.61,12.29,12.29,0,0,1-.89,2.69,16.85,16.85,0,0,1-2.1,3.11c-.8.66-1.57,2.21-2.42,2.79a12,12,0,0,0-1.91,2.17c-.53.58-1.14,1.09-1.52,1.47A14.35,14.35,0,0,1,89,121.36c-.28.18-1.46.77-1.58,1.38s1.36,2.28,3.67,6.72,2.1,4.79,2.8,5.49,2.65,2.79,3.53,3.67,2.37,2.75,3,3.59,2.54,2.66,2.8,3.09,1,.91.43-.59a20.9,20.9,0,0,1-1.37-5.52,19.62,19.62,0,0,1,.94-4.45c.3-.94,1.74-5,1.87-5.52a30.89,30.89,0,0,1,2.35-5.39c.65-.75,2.78-3.63,3.76-4.71a8.58,8.58,0,0,0,1.89-2.51c.36-.88,1.64-1.93,2.09-4.48a33,33,0,0,0,.43-5.62c0-1,.65-3.49.42-4.64s-.29-2.68-1-3.72-2.06-3-2.65-3.7-2.55-3.3-3.27-4.34-2.2-2.31-2.61-3.21-2.92-3.31-3.2-4.46S102,80.18,102,79.23a25,25,0,0,1,.23-3.51c.13-.44.26-1.36.59-1.57a1.69,1.69,0,0,1,1.33.13,25.21,25.21,0,0,0,1.65,2,28.91,28.91,0,0,1,1.79,2.78c.33.56.85,1.53,1,1.92a5.73,5.73,0,0,0,.74,1.44c.28.23.41.3.39-.65a10.28,10.28,0,0,0-.47-2.79,17.31,17.31,0,0,0-1-2.11c-.39-.59-.1-.48-.75-1.15a16.66,16.66,0,0,1-1.58-2c-.22-.33-.68-.91-.68-.91l-2.69-.11"/><path class="cls-4" d="M98.48,52.84a12.84,12.84,0,0,0,2.87,1.9,47.45,47.45,0,0,0,6.2,0,47,47,0,0,0,5.67-1.88,3.55,3.55,0,0,1,2-.48c.53.17,2-.21,2.43-.11a33.47,33.47,0,0,1,4.24.75c.47.3,1.61.79,1.88,1.22s1.13.94,1.33,1.17.8,1.4,1.14,1.8a11.69,11.69,0,0,0,2.33,1.33,19.58,19.58,0,0,1,2,1.2,20.51,20.51,0,0,0,2.43,1.77,11.83,11.83,0,0,1,3.34,3.6,30.61,30.61,0,0,0,3.36,4.83c.67.64,3.29,2.17,3.94,2.63s3.58,2.56,4.11,2.82a28.22,28.22,0,0,0,3.29,1.29c.75.2,2.28.48,2.67.66s1.29.57,1.84.85,1,.4,1,.46a3.46,3.46,0,0,1-1.4.37,28.34,28.34,0,0,0-4.28,1.12,32,32,0,0,1-6.38.88c-1.39,0-3.67.36-5.18.36s-6.34.2-7.7,0-3.07-.33-4-.36-2.15-.06-2.35.45a2,2,0,0,0,.47,1.86c.49.49.69.33,1,1.35s1.15,7.07,1.42,8.22.86,5,1,5.72,2.68,7.26,3,7.92a16,16,0,0,1,1,1.92c.07.29-1.25-1.26-1.52-1.52s-1.91-2.38-2.34-2.78a8.84,8.84,0,0,1-1.59-1.71c-.39-.66-3.33-4.89-3.89-5.75s-3.9-6.47-4.33-7.33-2.9-4.59-3.4-6.17-1.25-4.26-1.81-5.75-.6-2.38-.8-2.64-1,0-1.88-.66a11.38,11.38,0,0,1-2.61-2.81c-.59-1.06-1-2.51-1.45-3s-1-.74-1.35-1.59-.74-2.71-1.2-3.89-.52-2-1.05-3.11a26.23,26.23,0,0,0-1.88-3.66,7.51,7.51,0,0,0-2-1.45c-.32-.07-1.52-.26-1.57.08s-.26-.2-.26-.2"/></svg>