<svg id="Layer_1" data-name="Layer 1" xmlns="http://www.w3.org/2000/svg" viewBox="0 0 91.71 257.67"><defs><style>.cls-1{fill:#fff8ee;}.cls-2{isolation:isolate;}.cls-3{fill:#80af61;}.cls-4{fill:#b8b5d1;}</style></defs><rect class="cls-1" width="91.71" height="257.67"/><g class="cls-2"><path class="cls-3" d="M45.73,169.81a214.24,214.24,0,0,1-17.53,62.7q-3.84,8.48-8.4,16.61c-.14.25,1,.79,1.16.47a215.72,215.72,0,0,0,22.94-61.1c1.26-6,2.25-12.1,3-18.2,0-.38-1.13-.73-1.16-.48Z"/></g><g class="cls-2"><path class="cls-3" d="M46.81,170.82c1.2-5.95-2-10.63-6-14.7-1-1-2-1.94-2.92-2.91-.76-.75-1.85-1.74-1.87-2.91,0-2.16,3.54-2.71,5.08-3.22,0,0,.46-.16.41-.24-4.12-6.52-10.94-11.75-12.82-19.52a15.21,15.21,0,0,1-.24-6.12c.2-1.14,1.24-2.32,2.49-1.59a14.66,14.66,0,0,1,2.9,2.55,35.55,35.55,0,0,1,7.1,11.9,16.73,16.73,0,0,1,1.55,7c-.16,2.54-.12,4.63,1.86,6.49.21.2,1-.09,1.2-.28.63-.75.24-1.54-.74-1.47-1.4.1-1.31.86-.46,1.75.15.17,1.12-.07,1.2-.28,2.82-7.82,2.86-16.8,1.18-24.88-.53-2.52-1.23-7.64-4.92-7-1.56.29-2.17,1.56-2.81,2.91a13.85,13.85,0,0,0-1.32,5.84c-.05,4.9,2.11,9.56,4.47,13.74.14.24,1.26-.23,1.21-.32a34,34,0,0,1-4.17-10.42,16,16,0,0,1-.12-5.47,12.81,12.81,0,0,1,.78-2.85A7.42,7.42,0,0,1,41.46,116c1.23-.89,2.67,1.52,3,2.51a40,40,0,0,1,1.33,5.39,53.1,53.1,0,0,1,.81,11.33,40.37,40.37,0,0,1-2.2,12.27l1.2-.28a9.41,9.41,0,0,1-.67-.89,1.6,1.6,0,0,1,0-.27c-.14-.1-.55.11-.54.19s.32.25.36.4a.92.92,0,0,1-.31.85l1.2-.28c-2-1.86-2-4-1.87-6.5a16.64,16.64,0,0,0-1.55-7,33.94,33.94,0,0,0-8.06-12.85c-.63-.58-1.75-1.85-2.6-2.07a3.71,3.71,0,0,0-1.87.36,4.77,4.77,0,0,0-1.87,1.12,4.32,4.32,0,0,0-.66,2.67c-.31,4.53,1.56,8.68,4.1,12.33,2.85,4.1,6.45,7.64,9.12,11.87l.41-.24c-1.72.57-4.16,1-5.4,2.43-1.76,2.06,1.75,4.56,3,5.82,4.43,4.38,8.58,9.32,7.23,16,0,0,1.14,0,1.21-.32Z"/></g><g class="cls-2"><path class="cls-3" d="M47.49,130.12c1.63-1.78,1.83-4.14,1.64-6.46-.15-1.75-1.33-9.92,2.75-8.39,2.48.94,3.3,4.23,3.75,6.52.23,1.2.41,2.4.69,3.58a17,17,0,0,0,.52,1.72c.17.45.5,1.54.94,1.83,1.19.76,2.84-2,3.26-2.69.93-1.64,1.57-3.68,3.63-4.28a4.85,4.85,0,0,1,4.26,1c2.29,1.82,2.87,4.86,2.41,7.62a15.32,15.32,0,0,1-1.28,4.11c-.85,1.75-2.86,2.58-4.46,3.55a20.47,20.47,0,0,0-6.07,5.19,7.05,7.05,0,0,1-2.28,2.13,8.23,8.23,0,0,0-1.15.81c-1.46,1.28-2.39,2.76-4.21,3.68-.4.21-.91.8-.14.41a12.92,12.92,0,0,0,3.14-2.19c.56-.53,1-1.15,1.54-1.7a22.48,22.48,0,0,1,2.39-1.65A14.48,14.48,0,0,0,61,142.32a17.35,17.35,0,0,1,4.79-3.9,36.82,36.82,0,0,0,3.69-2.31,6.81,6.81,0,0,0,2.14-3.2c1.11-3,1.6-6.63-.4-9.41a5.39,5.39,0,0,0-6.59-1.94c-2.55,1.07-3.42,3.29-4.76,5.51a3.32,3.32,0,0,1-.61.9c-.53.36-.44.25-.73-.25a9.65,9.65,0,0,1-.82-2,42.83,42.83,0,0,1-1-4.63c-.46-2.38-1.4-6-4.17-6.67-2.61-.61-4.45,2.35-4.72,4.51-.46,3.71,1.73,8.32-1.15,11.47-.37.4.7-.15.85-.31Z"/></g><g class="cls-2"><path class="cls-3" d="M46.42,165.46c4.49-2,9.61-4,12.46-8.25a10.77,10.77,0,0,0,1.46-3.13,5.86,5.86,0,0,0,.2-3.26c-.34-.77-1.56-.39-2.14-.17a7.81,7.81,0,0,0-2.18,1.4c-.84.71-1.76,1.8-3,1.34a2.14,2.14,0,0,1-.8-3.47c.43-.44-.73-.13-.93.07a2.37,2.37,0,0,0,1.36,4.13c1.66.14,3-1.08,4.2-2.07.54-.47,2.18-1.85,2.37-.4a7.73,7.73,0,0,1-.52,3.59A12.51,12.51,0,0,1,54.27,161a48,48,0,0,1-8,4.11c-.1,0-.59.26-.5.43s.55,0,.66,0Z"/></g><g class="cls-2"><path class="cls-3" d="M52.69,149.91l0,0s0,0,0,0l.11-.08.24-.16,0,0c.06,0,0,0,0,0l.12-.07.25-.14a2.59,2.59,0,0,0,.94-.66.24.24,0,0,0,.06-.2.23.23,0,0,0-.15-.14.53.53,0,0,0-.51.14l-.09.1s0,0,0,.05h0l-.21.15s0,0,0,0l-.06,0-.12.06-.24.13a4.32,4.32,0,0,0-1,.7.2.2,0,0,0,.09.33.55.55,0,0,0,.52-.14Z"/></g><g class="cls-2"><path class="cls-3" d="M52,150c.22,0,.79-.33.31-.33-.22,0-.79.33-.31.33Z"/></g><g class="cls-2"><path class="cls-3" d="M52.18,150a1.54,1.54,0,0,0,.46-.19l.07-.06a.11.11,0,0,0,0-.06.05.05,0,0,0,0,0,.11.11,0,0,0-.08,0h-.08l-.19,0a1,1,0,0,0-.24.11h0l.06,0-.07,0,.08,0-.06,0,.09,0h0l-.13.05-.11.06a.13.13,0,0,0-.07.06.08.08,0,0,0,0,0l0,0a.17.17,0,0,0,.1,0,1.26,1.26,0,0,0,.27,0Z"/></g><g class="cls-2"><path class="cls-3" d="M52.12,150a2.72,2.72,0,0,0,.65-.35.19.19,0,0,0,.08-.15.19.19,0,0,0-.14-.09.61.61,0,0,0-.27,0l-.1,0a.6.6,0,0,0-.15.09h0l.07-.05-.29.17.09,0-.21.09a.27.27,0,0,0-.12.06.27.27,0,0,0-.08.07.11.11,0,0,0,0,.14.27.27,0,0,0,.19.06.75.75,0,0,0,.29-.06Z"/></g><g class="cls-2"><path class="cls-3" d="M54.15,148.77c.32,0,.76-.49.27-.49-.32,0-.75.49-.27.49Z"/></g><g class="cls-2"><path class="cls-3" d="M52.07,150.14c.23,0,.79-.35.3-.35-.23,0-.78.35-.3.35Z"/></g><g class="cls-2"><path class="cls-3" d="M51.92,150.17c.16,0,.82-.3.47-.3-.15,0-.82.3-.47.3Z"/></g><g class="cls-2"><path class="cls-3" d="M52,150.08c.15,0,.82-.27.48-.27-.15,0-.82.27-.48.27Z"/></g><g class="cls-2"><path class="cls-3" d="M52.16,150.1l.22,0h0l.09,0,0,0,0,0,.06,0s0,0,0,0a.09.09,0,0,0,0-.06s0,0,0-.06l-.08,0h-.2l-.19.05-.09,0-.11.08,0,0,0,0h0l.07,0h0l.08,0h0l.1,0h0l.09,0h0l-.15,0-.13,0-.09.06a.18.18,0,0,0-.05.07v0a.18.18,0,0,0,.07,0H52a.43.43,0,0,0,.16,0Z"/></g><g class="cls-2"><path class="cls-3" d="M52.14,150.26c.31,0,.75-.48.26-.48-.32,0-.75.48-.26.48Z"/></g><g class="cls-2"><path class="cls-3" d="M42.62,138.18c.19.25,0,.6.15.87,0,0,.09,0,.13,0a.77.77,0,0,0,.26,0,1.45,1.45,0,0,0,.25-.1s.11-.07.09-.11c-.14-.27,0-.61-.16-.86a.13.13,0,0,0-.12-.05,1.17,1.17,0,0,0-.27,0,.87.87,0,0,0-.25.1s-.11.07-.08.1Z"/></g><g class="cls-2"><path class="cls-3" d="M42.78,138.26c.15,0,.82-.29.47-.29-.15,0-.82.29-.47.29Z"/></g><g class="cls-2"><path class="cls-3" d="M42.65,138.16a.37.37,0,0,1,0,.23s0,0,0,0a.15.15,0,0,0,.09,0h.12a.58.58,0,0,0,.14,0l.1,0,.15-.07.05,0a.08.08,0,0,0,0-.07.45.45,0,0,0,0-.23.05.05,0,0,0-.05,0l-.08,0h-.12L43,138l-.1,0-.15.07-.05,0a.06.06,0,0,0,0,.06Z"/></g><g class="cls-2"><path class="cls-3" d="M46.62,137a36.13,36.13,0,0,0,.16,4.88,12.51,12.51,0,0,0,.84,4.35,1.35,1.35,0,0,0,1.72.72c1-.33,1.59-1.5,2.11-2.33,1.54-2.47,2.55-5.22,3.92-7.78.73-1.36,1.62-2.61,2.3-4A13.83,13.83,0,0,0,59,128.39c0-.23-.69-.09-.72.11a17.44,17.44,0,0,1-2.82,7.08c-1.27,2.12-2.22,4.39-3.31,6.6a25.41,25.41,0,0,1-1.9,3.32c-.34.49-.76,1.3-1.51,1.07-.4-.13-.6-1-.69-1.4a31.51,31.51,0,0,1-.69-8.33c0-.16-.72-.05-.73.19Z"/></g><g class="cls-2"><path class="cls-3" d="M56.5,121.36c.41-3.31,4.23-5,6.72-6.68A20.56,20.56,0,0,0,67,111.74a25.86,25.86,0,0,0,2.61-3.52c1.7-2.55,4-5.19,4.65-8.27C75,96.36,75.4,92.67,75.93,89c0-.09-.06-.14-.14-.17-2.15-.64-3.64,1-4.91,2.48A81.41,81.41,0,0,1,65,97.18a28.29,28.29,0,0,0-5,6,14.41,14.41,0,0,0-1.33,3c-.41,1.32-.49,2.73-1,4a15.91,15.91,0,0,0-.88,2.57c-.09.44,0,.57-.25.44s-.65-1-.79-1.2c-1.38-2.43-1-5.51-.74-8.19a57.13,57.13,0,0,1,1.21-9c.37-1.38,1.15-2.58,1.61-3.93a21.2,21.2,0,0,0,.73-4.21,9.33,9.33,0,0,0,.29-3.44c-.32-1.29-1.63-3-.95-4.37A9.43,9.43,0,0,1,59.6,77l1.62-1.68c1-1.08,2.13-2.12,3.07-3.28C66,69.93,66.5,67.3,67.24,64.8a24.09,24.09,0,0,0,1.34-8.36,18,18,0,0,1,0-3.95,6.3,6.3,0,0,1,.75-2.13A3.34,3.34,0,0,0,69.93,49a9.89,9.89,0,0,0-.81-3.41,10.56,10.56,0,0,0-1.45-3,13.79,13.79,0,0,0-4.59-3.75c-1.29-.65-2.31-.52-3.11.7a13.63,13.63,0,0,0-1.7,2.83A9.42,9.42,0,0,0,58,46.4c.36,3.54,1.2,6.83-.95,10a6.57,6.57,0,0,0-1.31,3.92c0,1.7,0,3.41,0,5.11a46.41,46.41,0,0,0,.11,4.72,15.48,15.48,0,0,0,.41,2.24c.14.53.62,1.61.45,2.15l.5-.26c.24,0,0-.25-.1-.4s-.2-.43-.29-.65a4,4,0,0,0-.42-.76,16,16,0,0,1-1.66-2.53c-1.13-2.13-1.16-4.87-1.47-7.23-.48-3.7-1.28-7.34-1.68-11a72.92,72.92,0,0,1-.46-7.39,6.25,6.25,0,0,1,0-1.93c.14-.24-.13-.18.18-.21.14,0,.36.13.49.19a4.52,4.52,0,0,1,2.41,2.61,16.63,16.63,0,0,1,.83,7.47c-.15,2-.21,4.07,1.2,5.65.18.21.87-.06.67-.29-1.82-2-1.07-4.78-1-7.25A13.84,13.84,0,0,0,54.63,44a4.37,4.37,0,0,0-1.73-1.81c-.46-.26-1.31-.81-1.9-.62s-.55.61-.57,1.08c0,1.22,0,2.46.06,3.67a136.09,136.09,0,0,0,1.87,14.94c.18,1.21.32,2.42.49,3.63a16.9,16.9,0,0,0,.91,4.66,18.71,18.71,0,0,0,2,3.2c.33.44.63,1.88,1.24,2a.5.5,0,0,0,.5-.27c.31-1-.57-2.61-.73-3.58a36.3,36.3,0,0,1-.23-6c0-1.7-.08-3.41,0-5.09.11-2,1.3-3.05,2.09-4.73,1.4-3,.35-6.25.11-9.33a6.72,6.72,0,0,1,1-4.66c.32-.46.6-.92.9-1.39.67-1.06,1.53-.75,2.44-.22a11.37,11.37,0,0,1,5.32,6.16c.54,1.57,1.21,3.18.34,4.72a8,8,0,0,0-.91,4.2c0,1.43.2,2.86.14,4.29A21.36,21.36,0,0,1,66.77,64c-.48,1.63-.9,3.29-1.46,4.9a13.44,13.44,0,0,1-3.38,4.89l-3.57,3.71c-1.06,1.1-1.65,1.73-1.24,3.28.21.78.57,1.5.82,2.26A4.52,4.52,0,0,1,58,85.44a49.17,49.17,0,0,1-.81,5.1c-.46,1.57-1.39,2.94-1.79,4.54a40.69,40.69,0,0,0-.78,5.39c-.37,3.28-1.27,7.3-.2,10.53.26.79,1.23,3.2,2.33,2.91.56-.14.63-.73.73-1.22.23-1.2.82-2.19,1.11-3.36a27.92,27.92,0,0,1,1.28-4.68,18.23,18.23,0,0,1,2.8-4.31c2.13-2.51,4.71-4.59,7-6.92.66-.66,1.29-1.35,1.9-2.06s1.53-2.06,2.55-2.13c1.37-.09,1,.61.85,1.33L74.78,92l-.5,3.36a35.49,35.49,0,0,1-1,5.74,22.34,22.34,0,0,1-3,5.09,47.42,47.42,0,0,1-3.57,5.09,23.13,23.13,0,0,1-5,3.8c-2.38,1.56-5.59,3.23-6,6.36,0,.32.69.19.73-.08Z"/></g><g class="cls-2"><path class="cls-3" d="M50.37,115.05c-1-2.39-2.14-4.92-4.25-6.56a41,41,0,0,0-3.68-2A8.83,8.83,0,0,1,39.33,103c-1.55-2.86-2-6.14-3.39-9.08A23.7,23.7,0,0,0,33.8,90.5a30,30,0,0,1-2.56-4.9,22.9,22.9,0,0,1-1.52-4.25c-.33-1.37-1.09-7,2.27-5a18.9,18.9,0,0,1,3.54,3.21,41.41,41.41,0,0,1,3.4,3.74,15.18,15.18,0,0,1,2.25,4c.5,1.37.82,2.79,1.36,4.14a10,10,0,0,0,1.83,3A2.57,2.57,0,0,1,45,95.54c.47,1.79.74,3.64,1.08,5.46.09.5.18,2.82.86,2.94a.49.49,0,0,0,.43-.15c.24-.28.14-.94.14-1.27,0-1,0-2.08-.06-3.12-.06-2.13-.14-4.27-.23-6.4C47,89.65,46.36,86.36,46,83a28.81,28.81,0,0,1-.28-3.71,15,15,0,0,1,.09-1.64c.06-.49.13-1.78.47-2.11a2.51,2.51,0,0,1,1.62-.36,2.64,2.64,0,0,1,1.08.48,5.79,5.79,0,0,1,1.24,1.18,16.61,16.61,0,0,1,1.5,2.54,15.68,15.68,0,0,1,1.5,3.65,30.07,30.07,0,0,0,.61,3.28,6.84,6.84,0,0,0,3.44,3.88c.28.13.91-.24.56-.41A6.58,6.58,0,0,1,55,87.23a12.81,12.81,0,0,1-1.05-4.14,13.9,13.9,0,0,0-1.31-3.42,14.39,14.39,0,0,0-2.35-3.74c-1-1-3.23-2.07-4.47-.82-.7.71-.75,2.18-.83,3.11a23,23,0,0,0,.16,4.31c.46,4.24,1.24,8.4,1.41,12.67.07,1.62.13,3.25.17,4.88,0,.69,0,1.38,0,2.07,0,.3-.16,1.09,0,1.35s.52.12.59-.09a2.05,2.05,0,0,0-.13-.53c-.15-.61-.25-1.23-.37-1.85-.28-1.54-.55-3.09-.87-4.63A4.79,4.79,0,0,0,45,94c-1.72-2-2.2-4.36-3.06-6.79a18.85,18.85,0,0,0-4.3-6.53c-.9-1-1.83-1.88-2.77-2.8a9.17,9.17,0,0,0-3.11-2.39c-1.65-.56-2.87.46-3.1,2.09-.39,2.79.7,5.68,1.82,8.17.6,1.33,1.22,2.68,1.94,3.95.87,1.52,2,2.81,2.76,4.42C36.5,97,37,100,38.37,102.78a10.65,10.65,0,0,0,2.23,3.13,16,16,0,0,0,3.63,2.16c2.85,1.5,4.19,4.34,5.42,7.17.13.32.85.11.72-.19Z"/></g><g class="cls-2"><path class="cls-3" d="M49.21,112.35c1-.81,2.17-1.09,2.63-2.37a21.05,21.05,0,0,0,.7-4.26l.67-4.85a6.91,6.91,0,0,1,.5-2.29,4.1,4.1,0,0,1,1.72-1.47c.3-.18-.42-.1-.56,0a3.75,3.75,0,0,0-2.18,2.57c-.3,1.57-.45,3.19-.67,4.79s-.37,3.36-.72,5a2.82,2.82,0,0,1-1.11,1.89,19.08,19.08,0,0,0-1.64,1.06c-.15.12.52.06.66-.06Z"/></g><g class="cls-2"><path class="cls-3" d="M46.35,75.36c-2.11-4.6-5.76-8.08-9.33-11.56C36.08,62.88,35.1,62,34.23,61c-1-1.19-1.08-2.72-1.46-4.2C32.09,54.2,31,51.63,31,48.91c0-1.21,0-3.34,1.53-3.35a4.22,4.22,0,0,1,3.34,1.24c.87,1.14.75,3.7,2.89,3.13,1.79-.48,2.5-2.59,2.9-4.17a15,15,0,0,1,1-3.06,6.61,6.61,0,0,1,.94-1.48c.54-.64,1-1.14,1.63-.55,2.29,2.09,1.4,6.1,1.59,8.8.21,2.89,2.23,4.58,4.45,6.15.27.19.9-.19.55-.43a13.8,13.8,0,0,1-3.08-2.67,7.15,7.15,0,0,1-1.19-4.94c.07-2.51,0-5.21-1.66-7.23-.39-.49-.56-.78-1.22-.61a4.3,4.3,0,0,0-2.17,1.91c-1.29,2-1.21,4.39-2.38,6.38-.5.84-1.39,1.74-2.43,1-.42-.27-.51-1.19-.67-1.65a3.06,3.06,0,0,0-1.55-1.83c-1-.53-3.78-1.21-4.5,0-1.3,2.15-.64,5.4,0,7.64.37,1.33.83,2.65,1.17,4s.35,2.72,1.22,3.83c1.89,2.42,4.46,4.41,6.58,6.62a29.21,29.21,0,0,1,5.73,7.91c.15.33.87.12.72-.19Z"/></g><g class="cls-2"><path class="cls-3" d="M38.82,49.67c-.25,4.72.33,9.06,3.36,12.84C45,66,49.57,70,47.8,75c-.13.39.59.37.69.08,1.55-4.37-1.62-8.21-4.31-11.29a17.7,17.7,0,0,1-3.94-6.22,22.35,22.35,0,0,1-.69-7.94c0-.37-.72-.25-.73.06Z"/></g><g class="cls-2"><path class="cls-3" d="M57.45,79.54A16.52,16.52,0,0,1,52.14,74c-1.08-2.05-2-4.36-4.22-5.4-.31-.14-.84.3-.42.49,2.29,1.06,3.09,3.7,4.25,5.73A17.12,17.12,0,0,0,56.89,80c.26.19.9-.17.56-.42Z"/></g><g class="cls-2"><path class="cls-3" d="M70.12,48.59a8.6,8.6,0,0,0,5.15-5.9c.21-.87.61-2.93,2-1.58A3.76,3.76,0,0,1,78,43.38a20.73,20.73,0,0,1,.13,6.14c-.63,3.59-3.57,5.86-4.92,9.1-.63,1.52-.69,3.32-1.6,4.72-1.14,1.77-3.62,2.56-5.43,3.48-.44.23,0,.5.3.33,1.73-.88,4-1.64,5.32-3.12,1.17-1.3,1.33-3.1,1.85-4.7A22,22,0,0,1,76.87,54,11.33,11.33,0,0,0,79,48.35a19.3,19.3,0,0,0-.44-6.25,2.15,2.15,0,0,0-2.46-1.82c-1.38.34-1.36,1.92-1.7,3a7.91,7.91,0,0,1-4.58,5c-.46.19,0,.47.3.33Z"/></g><path class="cls-4" d="M41.79,143.12c.24,2.25,1,3.37-1.31.6-14.93-17.71-10.81-23.65-9.3-23.06s3.32,3.86,4.91,5.63,1.22,5,2.73,7.29C40.77,136.47,41.49,140.24,41.79,143.12Z"/><path class="cls-4" d="M44.36,138.52c0-2.93-.75-4.3-1.78-6.43s-2.76-4.42-2.76-6.2a30.16,30.16,0,0,1,1.13-7.1c.5-1.21.4-2.75,1.2-2.34s1.08,1,1.86,3.26,1.79,11.85,1.84,15.35S44.35,150.4,44.36,138.52Z"/><path class="cls-4" d="M48.41,140.54c.06-3.3.19-8.07.47-10.14.15-1.11,1.7-3,1.46-5.38s-.89-5.54-.57-7,.8-2.45,1.45-2.09c1,.55,1.44.64,2.49,2.65s1.44,6.58,2.32,8.11,1.37,2.41,1.13,3.36c-.2.77-4.64,9.25-5.54,11.24C48.79,147.6,48.3,145.94,48.41,140.54Z"/><path class="cls-4" d="M56.37,138.52a14.34,14.34,0,0,0,2.26-5.18c.7-2.33.32-1.69.91-2.72s1.67-2.56,2.57-4.18,1.61-3.67,2.78-3.76,3.49-.45,4.66,2a8.12,8.12,0,0,1,0,6.9c-.9,2.24-1.62,4.57-3.23,5.38s-5.66,3.07-6.78,4.63a14.86,14.86,0,0,1-3.41,3.8c-1,.58-2.06,1.73-3.11,2.31C47.62,150.69,54.84,140.47,56.37,138.52Z"/><path class="cls-4" d="M49.66,109.64a.52.52,0,0,1-.84.15,15.38,15.38,0,0,0-4.09-3.22c-1.79-.66-4.26-2.07-4.91-4.43s-1.26-6.87-2.37-8.29S34,90.08,33.32,88,31,83.39,30.64,81s-.43-3.21,0-3.68,2.78.28,3.34,1.6,3.49,4.06,4.24,5,2.8,4,2.86,4.9,1.19,4.38,1.76,4.92A5.32,5.32,0,0,1,44.35,96c.28.94.06,2.36,1,5.18,1.06,3.08.57,4.53,1.84,4.43s1.09-1.51,1.32-4.62a56.76,56.76,0,0,0-.84-11.59c-.63-3.86-1.38-7.72-1.38-8.85A32.17,32.17,0,0,1,47,76.8c.12-1,.51-2,1.59-.57a18.41,18.41,0,0,1,3,5.37c.36,1.51.33.38.91,1.89s-.27,3.58,1.33,4.8S56,89.8,55.85,91.12s-1.24,2.95-1.79,5.46c-.27,1.18-2,1.51-2,3.62a25.45,25.45,0,0,1-1.92,8.45Z"/><path class="cls-4" d="M58.21,114.36s1.68-5,1.68-6.29a7.28,7.28,0,0,1,1.76-4.7c1.51-2,4.2-4.54,5.29-5.88a21.74,21.74,0,0,1,3.38-3.69,8.59,8.59,0,0,0,2.49-2.44c.34-.67.93-1.76,1.18-1.17a6.85,6.85,0,0,1,0,3.52c-.34,1.51-.42,5.71-1,6.55s-.42,1.51-1.59,3a38,38,0,0,0-3.53,5.12c-.42,1-2.18,3.5-3.27,4s-4.1,2.19-5.05,2.77C57.5,116.38,58.21,114.36,58.21,114.36Z"/><path class="cls-4" d="M46.12,73.25s-4.85-8.08-6.69-9-4.49-2.79-4.78-3.82-1.1-4.78-1.47-5.44a23.59,23.59,0,0,1-1.32-5.31c0-.94-.07-1.77,0-2.56.11-1.39,1.69-1,2.13-.66a10.57,10.57,0,0,1,1.62,2.35c.8,1.25,1.1,1.84,1.61,2s1.11,2.05,1.18,3.38a25.29,25.29,0,0,0,2.06,6.76,44.33,44.33,0,0,0,3.67,5.37c1.18,1.32,2.72,2.94,3,4.48a6.38,6.38,0,0,1,.15,2.5C47.07,74.32,46.12,73.25,46.12,73.25Z"/><path class="cls-4" d="M54.05,74.86c-1.39-1.81-1.37-3.12-2.52-4.34s-2.11-1.4-3-2.62-1.65-2.45-2.62-3.76-3.85-3.72-4.85-6.44a11.8,11.8,0,0,1-1-5.78c.17-1.57.06-1.66.66-2.46,1.52-2,2.18-5.83,2.5-6.35s.85-1.75,1.2-1.75a2.24,2.24,0,0,1,1.31,1.57c.09.7.35,2,.52,4s-.43,3,0,4.1a25.55,25.55,0,0,0,3.55,5.11,4.82,4.82,0,0,1,1.44,2.55c.21,1,.63,4.95.9,6.49s.48,3.51,1.06,4.41S55.71,73.5,55.88,74C57.17,78.18,55.45,76.66,54.05,74.86Z"/><path class="cls-4" d="M55.15,69.37s-1.59-6.2-1.53-8.08c0-1.54-1.15-6.28-1.24-7.16s-.49-5-.49-6.37.25-3,0-3.58c-1.1-2.47.71-1.35,1.22-.13a14.91,14.91,0,0,1,1.47,6.11c-.08,2.49-.37,5,.05,5.92s.92,1.33.8,2.38,0,6.07,0,7.63.09,3,.1,3.2C55.69,70.72,55.15,69.37,55.15,69.37Z"/><path class="cls-4" d="M55.88,76.65s2.42,1.63,6.68-5.08a28.84,28.84,0,0,0,2-4.58c.56-1.28,2.24-4.61,2.24-5.55A30.14,30.14,0,0,0,67,55.85c-.26-2.51-.43-4.29.08-5.54s.86-1.88.44-3.34a11,11,0,0,0-2.14-4.6A9.37,9.37,0,0,0,62.53,40c-.68-.25-1.2-.19-1.88.8a6.18,6.18,0,0,0-1.31,3.66c.16,1.15,1.36,4.18,1.36,5.69S61,53.91,60.13,55s-2,2-2.41,3a27.87,27.87,0,0,0-.55,7.68c.29,1.83,1.08,5.48.76,7s.42,1.72-.16,2.35a1.9,1.9,0,0,1-1.5.52"/><path class="cls-4" d="M71.63,61.87c.33-1.48.31-2.73.88-3.78a20.14,20.14,0,0,1,2.85-4.17,10.69,10.69,0,0,0,2.28-4.28,38.37,38.37,0,0,0,0-4.36c-.26-1.89-.06-2.88-.55-3.33s-.55-.74-1,.25.05,1.79-.84,3.23-1,2.09-2.24,2.83-2,.89-2.38,1.84-.65.45-1,1.69a10.72,10.72,0,0,0-.4,4.54c.25,1.81.55,1.84,0,3.59s-.91,3.37-1.24,4.23C67,66.65,71.07,64.39,71.63,61.87Z"/><path class="cls-4" d="M51.1,147.27a1.43,1.43,0,0,1-1.52,1A3.1,3.1,0,0,1,47,146.66c-.32-1.3-.33.53-1.1,1a3.11,3.11,0,0,1-2.73.24c-.46-.39-.85-.63-2.15-.19s-3.73.8-3.53,2.13.77,2.11,2.37,3.42a18.75,18.75,0,0,1,4.25,4.34,42.12,42.12,0,0,1,2.51,5.69c.05.58.58.53,2,0a21.6,21.6,0,0,0,4.92-2.6c.86-.78,2.6-1.74,3.13-2.61s1.59-1.75,1.74-2.93.56-1.85.23-2.52-.71-.29-2.4,1-2.91,2-3.75,1.74-.45.1-1.44-.63-1-.35-1.28-1.87c-.19-1-.58-.59.2-1.89A19.52,19.52,0,0,1,53,147.67"/></svg>